<?xml version="1.0" encoding="UTF-8" standalone="no"?>
<svg xmlns:dc="http://purl.org/dc/elements/1.1/" xmlns:cc="http://creativecommons.org/ns#" xmlns:rdf="http://www.w3.org/1999/02/22-rdf-syntax-ns#" xmlns:svg="http://www.w3.org/2000/svg" xmlns="http://www.w3.org/2000/svg" id="svg8" version="1.1" viewBox="0 0 25.4 25.4" height="96" width="96">
  <defs id="defs2"/>
  <metadata id="metadata5">
    <rdf:RDF>
      <cc:Work rdf:about="">
        <dc:format>image/svg+xml</dc:format>
        <dc:type rdf:resource="http://purl.org/dc/dcmitype/StillImage"/>
        <dc:title/>
      </cc:Work>
    </rdf:RDF>
  </metadata>
  <g transform="translate(0,-271.59999)" id="layer1">
    <path transform="rotate(-100.00002)" d="m -288.68438,-27.999425 a 2.8114924,2.8114924 0 0 1 -3.72353,-1.387473 2.8114924,2.8114924 0 0 1 1.38294,-3.725212 2.8114924,2.8114924 0 0 1 3.72689,1.378393 2.8114924,2.8114924 0 0 1 -1.37385,3.728572" id="path4504" style="opacity:1;fill:#1f1f1f;fill-opacity:1;stroke:none;stroke-width:0.32457948;stroke-linecap:butt;stroke-linejoin:round;stroke-miterlimit:4;stroke-dasharray:none;stroke-dashoffset:0;stroke-opacity:1"/>
    <path style="opacity:1;fill:#000000;fill-opacity:1;stroke:none;stroke-width:0.32457948;stroke-linecap:butt;stroke-linejoin:round;stroke-miterlimit:4;stroke-dasharray:none;stroke-dashoffset:0;stroke-opacity:1" id="use4506" d="m 272.72623,-111.48951 a 2.8114924,2.8114924 0 0 1 -3.72352,-1.38747 2.8114924,2.8114924 0 0 1 1.38293,-3.72522 2.8114924,2.8114924 0 0 1 3.7269,1.3784 2.8114924,2.8114924 0 0 1 -1.37385,3.72857" transform="rotate(109.99993)"/>
    <path style="opacity:1;fill:#ffffff;fill-opacity:1;stroke:none;stroke-width:0.32457948;stroke-linecap:butt;stroke-linejoin:round;stroke-miterlimit:4;stroke-dasharray:none;stroke-dashoffset:0;stroke-opacity:1" id="use4508" d="m -57.123451,-284.67978 a 2.8114924,2.8114924 0 0 1 -3.723524,-1.38747 2.8114924,2.8114924 0 0 1 1.382935,-3.72522 2.8114924,2.8114924 0 0 1 3.726894,1.3784 2.8114924,2.8114924 0 0 1 -1.37385,3.72857" transform="rotate(-170.00003)"/>
    <path style="opacity:1;fill:#dfdfdf;fill-opacity:1;stroke:none;stroke-width:0.32457948;stroke-linecap:butt;stroke-linejoin:round;stroke-miterlimit:4;stroke-dasharray:none;stroke-dashoffset:0;stroke-opacity:1" id="use4510" d="m -286.56704,5.6695782 a 2.8114924,2.8114924 0 0 1 -3.72353,-1.3874733 2.8114924,2.8114924 0 0 1 1.38294,-3.72521215 2.8114924,2.8114924 0 0 1 3.72689,1.37839365 2.8114924,2.8114924 0 0 1 -1.37385,3.7285718" transform="rotate(-90.000032)"/>
    <path style="opacity:1;fill:#bfbfbf;fill-opacity:1;stroke:none;stroke-width:0.32457948;stroke-linecap:butt;stroke-linejoin:round;stroke-miterlimit:4;stroke-dasharray:none;stroke-dashoffset:0;stroke-opacity:1" id="use4512" d="m -44.540134,279.69693 a 2.8114924,2.8114924 0 0 1 -3.723524,-1.38747 2.8114924,2.8114924 0 0 1 1.382934,-3.72522 2.8114924,2.8114924 0 0 1 3.726895,1.3784 2.8114924,2.8114924 0 0 1 -1.373851,3.72857" transform="rotate(-10.000036)"/>
    <path style="opacity:1;fill:#9f9f9f;fill-opacity:1;stroke:none;stroke-width:0.32457948;stroke-linecap:butt;stroke-linejoin:round;stroke-miterlimit:4;stroke-dasharray:none;stroke-dashoffset:0;stroke-opacity:1" id="use4514" d="m 262.72477,89.747054 a 2.8114924,2.8114924 0 0 1 -3.72353,-1.387473 2.8114924,2.8114924 0 0 1 1.38294,-3.725212 2.8114924,2.8114924 0 0 1 3.72689,1.378393 2.8114924,2.8114924 0 0 1 -1.37385,3.728572" transform="rotate(69.999978)"/>
    <path style="opacity:1;fill:#7f7f7f;fill-opacity:1;stroke:none;stroke-width:0.32457948;stroke-linecap:butt;stroke-linejoin:round;stroke-miterlimit:4;stroke-dasharray:none;stroke-dashoffset:0;stroke-opacity:1" id="use4516" d="m 125.99656,-242.23506 a 2.8114924,2.8114924 0 0 1 -3.72353,-1.38748 2.8114924,2.8114924 0 0 1 1.38294,-3.72521 2.8114924,2.8114924 0 0 1 3.72689,1.3784 2.8114924,2.8114924 0 0 1 -1.37385,3.72857" transform="rotate(149.99998)"/>
    <path style="opacity:1;fill:#5f5f5f;fill-opacity:1;stroke:none;stroke-width:0.32457948;stroke-linecap:butt;stroke-linejoin:round;stroke-miterlimit:4;stroke-dasharray:none;stroke-dashoffset:0;stroke-opacity:1" id="use4518" d="m -224.68463,-160.5338 a 2.8114924,2.8114924 0 0 1 -3.72352,-1.38747 2.8114924,2.8114924 0 0 1 1.38293,-3.72521 2.8114924,2.8114924 0 0 1 3.7269,1.37839 2.8114924,2.8114924 0 0 1 -1.37385,3.72857" transform="rotate(-130)"/>
    <path style="opacity:1;fill:#3f3f3f;fill-opacity:1;stroke:none;stroke-width:0.32457948;stroke-linecap:butt;stroke-linejoin:round;stroke-miterlimit:4;stroke-dasharray:none;stroke-dashoffset:0;stroke-opacity:1" id="use4520" d="m -202.09967,202.60606 a 2.8114924,2.8114924 0 0 1 -3.72352,-1.38747 2.8114924,2.8114924 0 0 1 1.38293,-3.72521 2.8114924,2.8114924 0 0 1 3.7269,1.37839 2.8114924,2.8114924 0 0 1 -1.37385,3.72857" transform="rotate(-50.000007)"/>
  </g>
</svg>